<svg id="Layer_1" enable-background="new 0 0 512 512" viewBox="0 0 512 512" xmlns="http://www.w3.org/2000/svg"><g id="Layer_2_00000144296763546849000190000004723305239566324884_"><g id="Layer_1-2"><g id="_75"><path d="m367.4 153.2h-315.8l57.7-57.7c5.9-5.9 5.9-15.5 0-21.4s-15.5-5.9-21.4 0l-83.5 83.5-.1.1c-.3.3-.6.7-.9 1l-.2.2c-.2.3-.4.6-.7.9l-.3.4c-.2.2-.3.5-.4.7s-.2.3-.2.4c-.2.4-.4.7-.5 1.1l-.1.6c-.1.3-.2.5-.3.8s-.1.3-.1.5-.2.6-.2.9l-.1.4c-.1.4-.1.9-.2 1.3-.1.4-.1.8-.1 1.3v.4 1 .4c0 .3.1.7.2 1v.3l.3 1.2c0 .2.1.3.2.5s.2.5.3.8.1.3.2.5.2.6.4.8c.1.1.1.2.2.4.2.4.4.7.6 1.1l.3.4c.2.2.4.5.6.8l.3.3c.3.3.6.7.9 1l87.8 87.8c5.8 6.1 15.3 6.3 21.4.5s6.3-15.3.5-21.4c-.2-.2-.4-.4-.5-.5l-62-62h315.9c63.1.6 113.9 52.3 113.3 115.4-.6 62.3-51 112.7-113.3 113.3h-260.4c-8.4-.2-15.3 6.4-15.5 14.7-.2 8.4 6.4 15.3 14.7 15.5h.8 260.3c79.7 0 144.6-64.9 144.6-144.6s-65-144.6-144.7-144.6z"/></g></g></g></svg>