<svg id="Layer_1" enable-background="new 0 0 24 24" viewBox="0 0 24 24" xmlns="http://www.w3.org/2000/svg"><g id="Layer_2_1_"><g id="GLYPH"><g id="Markup_File"><path d="m15 0h-9c-1.7 0-3 1.3-3 3v18c0 1.7 1.3 3 3 3h12c1.7 0 3-1.3 3-3v-15zm.5 1.2 4.3 4.3h-2.8c-.8 0-1.5-.7-1.5-1.5zm-6.1 15.4c.2.2.2.5 0 .7-.2.2-.5.2-.7 0l-1.7-1.6c-.4-.4-.4-1 0-1.4l1.6-1.6c.2-.2.5-.2.7 0s.2.5 0 .7l-1.6 1.6zm3.9-4.5-2 6c-.1.2-.3.3-.5.3-.1 0-.1 0-.2 0-.3-.1-.4-.4-.3-.6l2-6c.1-.3.4-.4.6-.3.3.1.4.4.4.6zm3.7 3.6-1.6 1.6c-.2.2-.5.2-.7 0s-.2-.5 0-.7l1.6-1.6-1.6-1.6c-.2-.2-.2-.5 0-.7.2-.2.5-.2.7 0l1.6 1.6c.4.3.4 1 0 1.4z"/></g></g></g></svg>