<svg id="Layer_1" enable-background="new 0 0 512 512" height="512" viewBox="0 0 512 512" width="512" xmlns="http://www.w3.org/2000/svg"><g id="Layer_2_1_"><g id="Layer_1-2"><g id="CSV"><g id="File"><path d="m302.2 0h-191.1c-18.4 0-33.4 15-33.4 33.5v445.1c0 18.5 15 33.4 33.5 33.5h335.5c18.5 0 33.4-15 33.5-33.5l-1-330.6z" fill="#fca235"/><path d="m302.2 0-.5 144.5s.5 3.5 3.5 3.5h174z" fill="#3a0101"/></g><path d="m45.5 246.7h337.6c7.5 0 13.6 6.1 13.6 13.6v150.8c0 7.5-6.1 13.6-13.6 13.6h-337.6c-7.5 0-13.6-6.1-13.6-13.6v-150.8c0-7.5 6.1-13.6 13.6-13.6z" fill="#3a0101"/><g fill="#fff"><path d="m150.1 343.4 20.3 6.1c-1.1 5.2-3.3 10-6.4 14.3-2.8 3.8-6.6 6.7-10.9 8.6s-9.9 2.9-16.6 2.9c-8.1 0-14.8-1.2-20-3.5s-9.6-6.5-13.3-12.5-5.6-13.6-5.6-22.9c0-12.4 3.3-21.9 9.9-28.6s15.9-10 28-10c9.4 0 16.9 1.9 22.3 5.7s9.4 9.7 12 17.6l-20.4 4.5c-.5-1.8-1.2-3.5-2.3-5-1.2-1.7-2.9-3.1-4.8-4.1-2-1-4.1-1.5-6.3-1.4-4.8-.2-9.4 2.2-12 6.3-2.1 3.1-3.2 8-3.2 14.8 0 8.3 1.3 14 3.8 17.1s6 4.6 10.6 4.7c4.4 0 7.8-1.2 10-3.7s3.8-6.1 4.9-10.9z"/><path d="m177.6 349.3 22-1.4c.5 3.6 1.4 6.3 2.9 8.2 2.4 3 5.8 4.5 10.2 4.5 3.3 0 5.9-.8 7.6-2.3 1.7-1.3 2.7-3.3 2.7-5.4 0-2-1-3.9-2.6-5.2-1.7-1.5-5.6-3-11.9-4.4-10.1-2.3-17.4-5.3-21.7-9.1-4.3-3.6-6.7-8.9-6.5-14.5 0-3.9 1.2-7.7 3.4-10.9 2.5-3.6 6-6.4 10.1-8.1 4.5-2 10.6-2.9 18.4-2.9 9.6 0 16.9 1.8 21.9 5.3s8 9.2 9 17l-21.8 1.3c-.6-3.4-1.8-5.8-3.6-7.4-1.9-1.5-4.4-2.3-7.7-2.3-2.7 0-4.7.6-6.1 1.7-1.3 1-2.1 2.5-2.1 4.2 0 1.3.7 2.5 1.7 3.2 1.1 1 3.7 1.9 7.8 2.8 10.1 2.2 17.4 4.4 21.7 6.6 3.9 1.8 7.2 4.7 9.6 8.3 2 3.3 3 7.2 3 11.1 0 4.7-1.4 9.4-4 13.3-2.7 4.1-6.6 7.3-11.1 9.2-4.8 2.1-10.8 3.1-18 3.1-12.7 0-21.6-2.5-26.5-7.4-5-4.8-8-11.5-8.4-18.5z"/><path d="m249.8 299.1h24.2l16.9 53.9 16.6-53.9h23.5l-27.8 74.9h-25.1z"/></g></g></g></g></svg>