<svg height="512" viewBox="0 0 152 152" width="512" xmlns="http://www.w3.org/2000/svg" xmlns:xlink="http://www.w3.org/1999/xlink"><linearGradient id="linear-gradient" gradientUnits="userSpaceOnUse" x1="11.91" x2="140.09" y1="11.91" y2="140.09"><stop offset="0" stop-color="#39007d"/><stop offset="1" stop-color="#1e0068"/></linearGradient><g id="Layer_2" data-name="Layer 2"><g id="_32.download" data-name="32.download"><rect id="background" fill="url(#linear-gradient)" height="152" rx="40.66" width="152"/><g id="icon" fill="#fff"><path d="m56.23 70.26 19 21.65a1 1 0 0 0 1.58 0l19-21.65a1.05 1.05 0 0 0 -.81-1.75h-11.36v-23.17a2.13 2.13 0 0 0 -2.13-2.13h-11a2.13 2.13 0 0 0 -2.13 2.13v23.17h-11.38a1.05 1.05 0 0 0 -.77 1.75z"/><path d="m109.71 91.54h-25.94l-3.22 3.67a6.05 6.05 0 0 1 -9.1 0l-3.22-3.67h-25.94a4.29 4.29 0 0 0 -4.29 4.29v8.68a4.29 4.29 0 0 0 4.29 4.28h67.42a4.29 4.29 0 0 0 4.29-4.28v-8.68a4.29 4.29 0 0 0 -4.29-4.29z"/></g></g></g></svg>