<?xml version="1.0" encoding="UTF-8" standalone="no"?>
<!-- Created with Inkscape (http://www.inkscape.org/) -->

<svg
   version="1.1"
   id="svg1638"
   xml:space="preserve"
   width="682.66669"
   height="682.66669"
   viewBox="0 0 682.66669 682.66669"
   xmlns="http://www.w3.org/2000/svg"
   xmlns:svg="http://www.w3.org/2000/svg"><defs
     id="defs1642"><clipPath
       clipPathUnits="userSpaceOnUse"
       id="clipPath1652"><path
         d="M 0,512 H 512 V 0 H 0 Z"
         id="path1650" /></clipPath></defs><g
     id="g1644"
     transform="matrix(1.3333333,0,0,-1.3333333,0,682.66667)"><g
       id="g1646"><g
         id="g1648"
         clip-path="url(#clipPath1652)"><g
           id="g1654"
           transform="translate(474.5,422)"><path
             d="m 0,0 h -30 v -90 h 60 v 60 C 30,-13.43 16.57,0 0,0"
             style="fill:#ffa436;fill-opacity:1;fill-rule:nonzero;stroke:none"
             id="path1656" /></g><g
           id="g1658"
           transform="translate(474.5,392)"><path
             d="M 0,0 -90,-120 H -467 V 60 c 0,16.57 13.43,30 30,30 h 146.07 c 7.96,0 15.59,-3.16 21.22,-8.79 L -218.5,30 H -30 C -13.43,30 0,16.57 0,0"
             style="fill:#ffbc2b;fill-opacity:1;fill-rule:nonzero;stroke:none"
             id="path1660" /></g><g
           id="g1662"
           transform="translate(444.5,392)"><path
             d="M 0,0 -60,-75 H 30 V 0 Z"
             style="fill:#8ae7ff;fill-opacity:1;fill-rule:nonzero;stroke:none"
             id="path1664" /></g><g
           id="g1666"
           transform="translate(444.5,392)"><path
             d="M 0,0 V -150 L -407,-30 V 0 Z"
             style="fill:#bdf1ff;fill-opacity:1;fill-rule:nonzero;stroke:none"
             id="path1668" /></g><path
           d="m 37.5,272 h 290.93 v 90 H 37.5 Z"
           style="fill:#ffffff;fill-opacity:1;fill-rule:nonzero;stroke:none"
           id="path1670" /><g
           id="g1672"
           transform="translate(474.5,362)"><path
             d="M 0,0 -30,-30 V -332 H 0 c 16.57,0 30,13.43 30,30 V -30 C 30,-13.43 16.57,0 0,0"
             style="fill:#ffbc2b;fill-opacity:1;fill-rule:nonzero;stroke:none"
             id="path1674" /></g><g
           id="g1676"
           transform="translate(474.5,362)"><path
             d="m 0,0 v -302 c 0,-16.57 -13.43,-30 -30,-30 h -407 c -16.57,0 -30,13.43 -30,30 v 212 c 0,16.57 13.43,30 30,30 h 218.5 l 51.21,51.21 c 5.63,5.63 13.26,8.79 21.22,8.79 z"
             style="fill:#ffcf66;fill-opacity:1;fill-rule:nonzero;stroke:none"
             id="path1678" /></g><g
           id="g1680"
           transform="translate(37.5,302)"><path
             d="M 0,0 V 90 H 437 V 60"
             style="fill:none;stroke:#000000;stroke-width:15;stroke-linecap:round;stroke-linejoin:round;stroke-miterlimit:10;stroke-dasharray:none;stroke-opacity:1"
             id="path1682" /></g><g
           id="g1684"
           transform="translate(474.5,30)"><path
             d="m 0,0 h -437 c -16.568,0 -30,13.432 -30,30 v 392 c 0,16.568 13.432,30 30,30 h 146.073 c 7.957,0 15.587,-3.161 21.214,-8.787 L -218.5,392 H 0 c 16.568,0 30,-13.432 30,-30 V 30 C 30,13.432 16.568,0 0,0 Z"
             style="fill:none;stroke:#000000;stroke-width:15;stroke-linecap:round;stroke-linejoin:round;stroke-miterlimit:10;stroke-dasharray:none;stroke-opacity:1"
             id="path1686" /></g><g
           id="g1688"
           transform="translate(328.4268,362)"><path
             d="M 0,0 C -7.957,0 -15.587,-3.161 -21.214,-8.787 L -72.427,-60 h -218.5 c -16.568,0 -30,-13.432 -30,-30"
             style="fill:none;stroke:#000000;stroke-width:15;stroke-linecap:round;stroke-linejoin:round;stroke-miterlimit:10;stroke-dasharray:none;stroke-opacity:1"
             id="path1690" /></g><g
           id="g1692"
           transform="translate(67.5,362)"><path
             d="M 0,0 H -30"
             style="fill:none;stroke:#000000;stroke-width:15;stroke-linecap:round;stroke-linejoin:round;stroke-miterlimit:10;stroke-dasharray:none;stroke-opacity:1"
             id="path1694" /></g><g
           id="g1696"
           transform="translate(504.5,332)"><path
             d="M 0,0 C 0,16.568 -13.432,30 -30,30 H -407"
             style="fill:none;stroke:#000000;stroke-width:15;stroke-linecap:round;stroke-linejoin:round;stroke-miterlimit:10;stroke-dasharray:none;stroke-opacity:1"
             id="path1698" /></g></g></g></g></svg>
