<?xml version="1.0" encoding="iso-8859-1"?>
<!-- Generator: Adobe Illustrator 19.0.0, SVG Export Plug-In . SVG Version: 6.00 Build 0)  -->
<svg version="1.1" id="Capa_1" xmlns="http://www.w3.org/2000/svg" xmlns:xlink="http://www.w3.org/1999/xlink" x="0px" y="0px"
	 viewBox="0 0 512 512" style="enable-background:new 0 0 512 512;" xml:space="preserve">
<circle style="fill:#FFD311;" cx="192" cy="264" r="40"/>
<g>
	<polygon style="fill:#36C63F;" points="400,368 400,424 304,360 344,328 	"/>
	<polygon style="fill:#36C63F;" points="400,424 400,464 112,464 112,416 256,328 304,360 	"/>
</g>
<path style="fill:#81D5D7;" d="M400,176v192l-56-40l-40,32l-48-32l-144,88V176H400z M232,264c0-22.08-17.92-40-40-40
	s-40,17.92-40,40s17.92,40,40,40S232,286.08,232,264z"/>
<polygon style="fill:#E7ECED;" points="440,80 368,80 368,8 "/>
<path style="fill:#FFFFFF;" d="M440,80v424H72V8h296v72H440z M400,464v-40v-56V176H112v240v48H400z"/>
<path d="M445.656,74.344l-72-72C372.16,0.84,370.12,0,368,0H72c-4.416,0-8,3.584-8,8v496c0,4.424,3.584,8,8,8h368
	c4.416,0,8-3.576,8-8V80C448,77.88,447.16,75.84,445.656,74.344z M376,27.312L420.688,72H376V27.312z M80,496V16h280v64
	c0,4.416,3.584,8,8,8h64v408H80z"/>
<path d="M400,168H112c-4.416,0-8,3.584-8,8v288c0,4.424,3.584,8,8,8h288c4.416,0,8-3.576,8-8V176C408,171.584,404.416,168,400,168z
	 M392,409.056l-74.464-49.64l26.736-21.384L392,372.12V409.056z M392,184v168.456l-43.352-30.968
	c-2.904-2.072-6.84-1.976-9.648,0.264l-35.432,28.344l-43.136-28.752c-2.592-1.728-5.96-1.8-8.608-0.168L120,401.736V184H392z
	 M120,456v-35.512l135.816-83L392,428.28V456H120z"/>
<path d="M192,312c26.472,0,48-21.528,48-48s-21.528-48-48-48s-48,21.528-48,48S165.528,312,192,312z M192,232
	c17.648,0,32,14.352,32,32s-14.352,32-32,32s-32-14.352-32-32S174.352,232,192,232z"/>
<rect x="104" y="40" width="64" height="16"/>
<rect x="104" y="72" width="96" height="16"/>
<g>
</g>
<g>
</g>
<g>
</g>
<g>
</g>
<g>
</g>
<g>
</g>
<g>
</g>
<g>
</g>
<g>
</g>
<g>
</g>
<g>
</g>
<g>
</g>
<g>
</g>
<g>
</g>
<g>
</g>
</svg>
