<svg id="Layer_1" enable-background="new 0 0 512 512" viewBox="0 0 512 512" xmlns="http://www.w3.org/2000/svg"><g><g><path d="m441.667 171.769v269.679c0 25.112-20.357 45.469-45.469 45.469h-280.4c-25.112 0-45.469-20.357-45.469-45.469v-370.906c0-25.112 20.357-45.469 45.469-45.469h187.805z" fill="#e5252a"/><path d="m396.2 496h-280.4c-30.083 0-54.564-24.481-54.564-54.557v-370.886c0-30.076 24.481-54.557 54.564-54.557h187.804c2.509 0 4.907 1.036 6.624 2.842l138.065 146.679c1.584 1.687 2.472 3.937 2.472 6.246v269.676c-.001 30.076-24.482 54.557-54.565 54.557zm-280.4-461.824c-20.056 0-36.374 16.311-36.374 36.381v370.886c0 20.07 16.318 36.381 36.374 36.381h280.4c20.055 0 36.374-16.311 36.374-36.381v-266.065l-132.9-141.202z" fill="#1a1e26"/><path d="m441.667 171.769h-107.752c-16.741 0-30.313-13.571-30.313-30.313v-116.383z" fill="#ed676a"/><path d="m441.669 180.855h-107.752c-21.728 0-39.408-17.673-39.408-39.401v-116.366c0-3.73 2.279-7.075 5.743-8.466 3.471-1.273 7.423-.444 9.976 2.22l138.065 146.679c2.487 2.664 3.16 6.512 1.724 9.858-1.436 3.315-4.722 5.476-8.348 5.476zm-128.97-132.825v93.425c0 11.693 9.517 21.225 21.217 21.225h86.705z" fill="#1a1e26"/><g fill="#fff"><path d="m167.227 349.41v30.727h-21.817v-90.524h36.115c6.927 0 13.055 1.273 18.383 3.819s9.443 6.187 12.374 10.894c2.901 4.707 4.381 10.035 4.381 16.015 0 8.821-3.167 15.867-9.502 21.166-6.305 5.269-14.979 7.904-26.02 7.904h-13.914zm0-16.844h14.298c4.233 0 7.46-1.036 9.68-3.167 2.22-2.102 3.315-5.092 3.315-8.94 0-4.233-1.154-7.608-3.434-10.154-2.279-2.516-5.388-3.789-9.325-3.848h-14.535v26.109z"/><path d="m228.266 380.137v-90.524h29.158c7.993 0 15.186 1.806 21.58 5.447 6.364 3.611 11.367 8.733 14.949 15.364 3.582 6.601 5.388 14.002 5.417 22.202v4.174c0 8.289-1.747 15.719-5.24 22.29-3.493 6.572-8.437 11.693-14.801 15.423-6.365 3.7-13.469 5.565-21.284 5.624zm21.817-73.68v56.895h7.578c6.276 0 11.071-2.22 14.416-6.69 3.375-4.44 5.062-11.071 5.062-19.863v-3.908c0-8.762-1.687-15.334-5.062-19.774-3.345-4.44-8.229-6.661-14.653-6.661h-7.341z"/><path d="m367.604 344.081h-35.197v36.055h-21.817v-90.524h60.537v16.844h-38.72v20.84h35.197z"/></g></g></g></svg>