<svg id="Outline_Color_ok" viewBox="0 0 64 64" xmlns="http://www.w3.org/2000/svg"><path d="m55 15v45c0 1.105-.895 2-2 2h-42c-1.105 0-2-.895-2-2v-56c0-1.105.895-2 2-2h31z" fill="#fff8f5"/><path d="m55 15h-11c-1.105 0-2-.895-2-2v-11s13 13 13 13z" fill="#e8e3e2"/><rect fill="#fd5e0d" height="26" rx="2" width="30" x="17" y="22"/><path d="m28 28v14l12-7z" fill="#fff"/><g fill="#231f20"><path d="m45 49h-26c-1.654 0-3-1.346-3-3v-22c0-1.654 1.346-3 3-3h26c1.654 0 3 1.346 3 3v22c0 1.654-1.346 3-3 3zm-26-26c-.551 0-1 .449-1 1v22c0 .551.449 1 1 1h26c.551 0 1-.449 1-1v-22c0-.551-.449-1-1-1z"/><path d="m28 43c-.172 0-.344-.044-.498-.133-.311-.178-.502-.509-.502-.867v-14c0-.358.191-.689.502-.867s.693-.176 1.002.003l12 7c.307.179.496.508.496.864s-.189.685-.496.864l-12 7c-.156.091-.33.136-.504.136zm1-13.259v10.518l9.015-5.259z"/><path d="m55.987 14.937c-.006-.088-.023-.173-.051-.257-.011-.032-.019-.063-.034-.094-.049-.106-.11-.207-.196-.293l-12.999-13c-.086-.086-.188-.148-.294-.197-.029-.013-.059-.021-.09-.032-.086-.03-.173-.047-.263-.052-.021-.001-.039-.012-.06-.012h-31c-1.654 0-3 1.346-3 3v56c0 1.654 1.346 3 3 3h42c1.654 0 3-1.346 3-3v-45c0-.022-.011-.041-.013-.063zm-3.402-.937h-8.586c-.551 0-1-.449-1-1v-8.586zm.414 47h-41.999c-.551 0-1-.449-1-1v-56c0-.551.449-1 1-1h30v10c0 1.654 1.346 3 3 3h10v44c0 .551-.449 1-1 1z"/></g></svg>