<svg clip-rule="evenodd" fill-rule="evenodd" height="1in" image-rendering="optimizeQuality" shape-rendering="geometricPrecision" text-rendering="geometricPrecision" viewBox="0 0 843 1000" width=".843in" xmlns="http://www.w3.org/2000/svg"><g id="Layer_x0020_1"><path d="m135 0h576l132 162v791c0 26-21 47-47 47h-661c-25 0-46-21-46-47v-153h465c11 0 20-9 20-20v-226c0-11-9-20-20-20h-465v-487c0-26 21-47 46-47z" fill="#bfbfbf"/><path d="m135 0h576l132 162v430c-102 208-316 351-564 351-66 0-130-10-190-29v-114h465c11 0 20-9 20-20v-226c0-11-9-20-20-20h-465v-487c0-26 21-47 46-47z" fill="#ccc"/><path d="m697 0h14l132 162v10h-143c-1 0-3-1-3-3z" fill="#8a4545"/><rect fill="#8a4545" height="265" rx="17" ry="20" width="574" y="534"/><g fill="#fff" fill-rule="nonzero"><path d="m218 385c-12 0-22-9-22-21s10-21 22-21h336c12 0 21 9 21 21s-9 21-21 21z"/><path d="m218 300c-12 0-22-9-22-21s10-21 22-21h336c12 0 21 9 21 21s-9 21-21 21z"/><path d="m500 215c-12 0-22-9-22-21s10-21 22-21h54c12 0 21 9 21 21s-9 21-21 21z"/><path d="m218 215c-12 0-21-9-21-21s9-21 21-21h205c12 0 22 9 22 21s-10 21-22 21z"/><path d="m399 590h-60v16 77 61h37v-61h23c15 0 28-5 38-14 11-8 16-19 16-31v-3c0-12-5-23-16-31-10-9-23-14-38-14zm16 48c0 3-1 7-4 9-4 3-7 4-12 4h-23v-29h23c5 0 8 1 12 4 3 2 4 6 4 9z"/><path d="m267 743h37v-153h-37z"/><path d="m232 590h-111v32h62l-62 98v24h111v-32h-63l63-102z"/></g></g></svg>